<?xml version="1.0" encoding="UTF-8"?>
<svg id="Camada_1" xmlns="http://www.w3.org/2000/svg" version="1.1" viewBox="0 0 500 500">
  <!-- Generator: Adobe Illustrator 30.0.0, SVG Export Plug-In . SVG Version: 2.1.1 Build 123)  -->
  <defs>
    <style>
      .st0 {
        fill: #fff;
      }

      .st1 {
        fill: #e10600;
      }
    </style>
  </defs>
  <g id="escudo_bella">
    <path class="st0" d="M240.3,492c-33.9-18-64-39-89.5-62.4-25.7-23.6-47.5-50.3-64.7-79.3-17.2-29-30.2-61.1-38.8-95.4-8.5-34-12.8-71-12.8-110.1v-18l17.9-2.5c73.6-10.1,133.1-43.6,181.8-102.3l15.9-19.2,15.9,19.2c48.7,58.7,108.2,92.2,181.8,102.3l17.9,2.5v18c0,39.1-4.3,76.1-12.8,110.1-8.6,34.3-21.6,66.4-38.8,95.4-17.2,29-39,55.7-64.7,79.3-25.5,23.4-55.7,44.4-89.5,62.4l-9.7,5.2-9.7-5.2Z"/>
    <path d="M447.1,128.6c-74.7-10.3-135-44.3-184.5-103.8l-12.7-15.3-12.7,15.3c-49.4,59.6-109.7,93.5-184.5,103.8l-14.2,2v14.3c0,38.7,4.3,75.4,12.7,109,8.5,33.9,21.4,65.6,38.3,94.2,17,28.7,38.5,55,63.9,78.3,25.3,23.2,55.1,43.9,88.6,61.8l7.7,4.1,7.7-4.1c33.6-17.8,63.4-38.6,88.6-61.8,25.4-23.3,46.9-49.7,63.9-78.3,17-28.6,29.9-60.3,38.3-94.2,8.4-33.6,12.7-70.3,12.7-109v-14.3l-14.2-2Z"/>
    <path class="st0" d="M247.1,479.1c-32.8-17.4-61.9-37.7-86.5-60.3-24.7-22.6-45.6-48.2-62-76-16.5-27.8-29-58.5-37.2-91.4-8.2-32.8-12.4-68.6-12.4-106.5v-5.3l5.3-.7c77.4-10.7,139.9-45.8,191-107.5l4.7-5.6,4.7,5.6c51.1,61.6,113.6,96.8,191,107.5l5.3.7v5.3c0,37.9-4.2,73.7-12.4,106.5-8.2,32.9-20.7,63.7-37.2,91.4-16.5,27.8-37.3,53.4-62,76-24.6,22.6-53.7,42.8-86.5,60.3l-2.9,1.5-2.9-1.5Z"/>
    <path class="st1" d="M250,35.3c-47.8,57.6-109.7,97.9-194.9,109.6,0,41.7,5,80.3,15,115.7.1.4.2.9.4,1.3h358.9c.1-.4.2-.9.4-1.3,10-35.4,15-74,15-115.7-85.2-11.7-147.1-52-194.9-109.6Z"/>
    <path d="M70.9,263.1c26.4,91,86.1,161.3,179.1,210.7,93-49.4,152.7-119.6,179.1-210.7.1-.4.2-.8.3-1.2H70.5c.1.4.2.8.3,1.2Z"/>
  </g>
  <g>
    <path class="st0" d="M139.7,188.8c-4.2-9.5-10.9-17.8-19.3-23.9l-4.9-3.6,39.2-17.5-.6,6c-1,10.4.6,20.9,4.9,30.4l25.9,58.1v52l-45.2-101.5Z"/>
    <path class="st0" d="M341.9,178.1c3.6-9,5-18.7,4-28.3l-.6-6,39.2,17.5-4.9,3.6c-7.8,5.8-14.2,13.4-18.5,22.2l-56.2,126.1c-8.1,2-16.5,3.4-25,4.1l61.8-139Z"/>
    <path class="st0" d="M228.4,388v-29.9c3.5.6,7,1.1,10.5,1.6l11.1,24.9,10.4-23.4c1.8,0,3.4,0,5,0,6.2,0,12.4-.3,18.5-.8l-33.9,76.1-21.6-48.6Z"/>
    <path class="st0" d="M177.5,194.2c27.2-13.6,56.7-20.6,87.9-20.6s42.2,3.3,62,9.8l-8.7,19.5c-17-5.4-34.9-8.1-53.3-8.1-28.1,0-54.7,6.3-79.3,18.8l-8.6-19.4Z"/>
    <path class="st0" d="M382.4,243.7c-7.6-10.8-16.3-17.2-20.9-20.2l-3.4-2.3,8.7-19.6c9.1,5.5,17.8,11.8,26,18.7l-10.4,23.3Z"/>
    <path class="st0" d="M265.4,350.1c-.4,0-.7,0-1.1,0h-.7c-3.2,0-6.3-.1-9.5-.3-2.8-.2-5.6-.4-8.3-.6-3.4-.3-6.8-.7-10.1-1.2-2.4-.4-4.9-.8-7.3-1.2v-21.6c1.9.4,3.9.8,5.9,1.1,9.8,1.7,19.9,2.6,30.1,2.7h.4c.2,0,.4,0,.6,0,2.9,0,5.7,0,8.8-.2,9.3-.4,18.5-1.6,27.4-3.5,3.7-.8,7.4-1.7,10.9-2.6,14.7-4.1,28.8-10.1,42.1-18h0c4.7-2.7,13.5-8.8,21.4-19.5l10.4,23.3c-25.8,20.1-54.8,33.1-86.5,38.6-3.4.6-6.9,1.1-10.3,1.5-8,1-16.2,1.5-24.4,1.5Z"/>
    <path class="st0" d="M184.9,333.1c-48.2-21.7-73.2-56.9-74.3-58.4l-3-4.3c-2.2-3.1-4.8-5.7-7.7-7.7h0s-1.3-.8-1.3-.8l1.3-.8h0c2.9-2,5.5-4.6,7.7-7.7l3-4.3c1.1-1.6,11-15.4,30-30.9l9,20.1c-14.2,12.4-21.5,22.8-21.6,22.9l-.5.7.5.7c.2.3,18.1,25.5,52.5,44.6,1,.6,2.1,1.1,3.2,1.7.4.2.9.5,1.3.7v23.5Z"/>
    <path class="st0" d="M196.1,157.7c0-10.4-2.7-20.7-7.9-29.7l-3-5.3h123.3v32.1l-5.3-3c-9-5.2-19.3-7.9-29.7-7.9h-56.2v24.1c-7.2,1.7-14.3,3.8-21.2,6.2v-16.5Z"/>
    <path class="st0" d="M188.2,388.5c1.3-2.4,2.6-4.9,3.6-7.4,2.9-7.1,4.3-14.6,4.3-22.3v-137.7c6.9-3.2,14-5.9,21.2-8.1v39.6h27.5c10.4,0,20.7-2.7,29.7-7.9l5.3-3v43l-5.3-3c-9-5.2-19.3-7.9-29.7-7.9h-27.5v120.1h-32.1s3-5.3,3-5.3Z"/>
    <path class="st0" d="M281.3,393.8l10.2-22.8c5.5-1.3,10.7-3.4,15.6-6.2l5.3-3v32.1h-31Z"/>
  </g>
</svg>